<svg id="Layer_1" data-name="Layer 1" xmlns="http://www.w3.org/2000/svg" xmlns:xlink="http://www.w3.org/1999/xlink" viewBox="0 0 1080 1063.53"><defs><style>.cls-1{fill:url(#linear-gradient);}.cls-2{fill:url(#linear-gradient-2);}.cls-3{fill:url(#linear-gradient-3);}.cls-4{fill:url(#linear-gradient-4);}.cls-5{fill:url(#linear-gradient-5);}</style><linearGradient id="linear-gradient" x1="126" y1="156.27" x2="931.52" y2="989.45" gradientUnits="userSpaceOnUse"><stop offset="0" stop-color="#ff6f61"/><stop offset="1" stop-color="#6b5b95"/></linearGradient><linearGradient id="linear-gradient-2" x1="204.75" y1="80.14" x2="1010.27" y2="913.31" xlink:href="#linear-gradient"/><linearGradient id="linear-gradient-3" x1="99.89" y1="181.52" x2="905.41" y2="1014.69" xlink:href="#linear-gradient"/><linearGradient id="linear-gradient-4" x1="57.16" y1="222.83" x2="862.68" y2="1056" xlink:href="#linear-gradient"/><linearGradient id="linear-gradient-5" x1="158.39" y1="124.95" x2="963.92" y2="958.12" xlink:href="#linear-gradient"/></defs><path class="cls-1" d="M393.76,477.15c-79.11,151.49,184,201.58,187.89,40.91C581,420.1,438.08,392.73,393.76,477.15ZM422.48,524c1.93-69.81,114.21-78.46,117.71-4.87C538.69,598,423.79,601.3,422.48,524Z"/><path class="cls-2" d="M631.83,535.56c9.5,9.79,15.73,21.14,22.47,32,10,17.21,34.86,17.65,39.75-2.9,3.88-5.86,13.92-40.57,22-24.55C742.73,633,581.69,623.22,631.83,535.56Z"/><path class="cls-3" d="M601.45,686.12c-.06,56.41-47.67,11.48-42.61-20.94C561,636.89,604.14,647.35,601.45,686.12Z"/><path class="cls-4" d="M518,674.47c1.63,13.21-7.14,24-15.33,35-3.21,4.33-7,3.34-10.72,1-15.75-9.37-15.27-29.93-8-44.58C491.9,644.87,522.3,645.93,518,674.47Z"/><path class="cls-5" d="M1080.51,189.28c.64-8.1,0-11.5-10-7.33-66.78,27.3-140,35.59-211,39.33-6.06-2.51-3.4-11.71-6.23-17.72C724.6-65.43,319.17-52.76,210.4,220.73,142,216.28,72.34,212.22,8.81,184.14c-8-3.41-8.4-1.07-8.81,5.76C.41,311,72,424.67,181.55,477.9c13.54-6.94,104.54-50,140.26-66.89-56.13,58.79-33.21,144-16.13,214.24,3.29,62.93-11.55,77.6,64,101.47,12.48,3.07,18,7.49,13.7,20.66-6.21,11.1-31.7,55.72-50.39,37.33-25.95-20.58-84.29-63.11-86-65.23C233.75,617.74,78.83,627.43,79.15,730.91,77.67,818.84,202.05,846.69,239,768.52c121.5,96.27,89.32,49.61-22.77,145.35-59-1.51-91,75.51-49.27,116.52,65.45,65.73,163.21-32.85,97-97.75,24-17.29,92-57,96.14-68.09,55.2,46.85,109.63,93.39,168.25,135,4.62,3.26,6.83,2.06,10.57-.43C591.85,964,712.07,873.46,715,859.63c26,25.65,55.76,46,84.22,69.49-50,37.29-20.36,124.78,43.22,122.49,84.09-.88,93.15-123,11-136.86-7.71-8.34-80.68-61.69-106.13-84.09,27.86-21.53,58.88-38.28,83.83-61.52,37.39,77.52,161,49.32,159.49-38.24.63-100.26-148.14-114.19-166.94-16.86-.64,1.59-68.09,55-98.89,79.41-2-5.55-60.14-56.43-38.77-63.75,17.05-1.07,33.08-6.25,48.41-13.42,32.63-15.27,42.15-30.74,37.68-65.64-2.6-27.2,17-49.11,18.69-75.81,19.8-54.47,19.63-118.84-20.5-164.21,1.42-.32,93.6,52,124.93,65.86C1011.52,429.33,1073.81,309.09,1080.51,189.28ZM135.9,732c-2-35.33,54.65-43.69,55.12-4.36C193.45,767.68,134.63,773.46,135.9,732Zm78.94,270.28c-24.51-2.11-23.09-43,5.24-40.15C245.15,961.06,237.65,1004.75,214.84,1002.3ZM850.1,962.2c27.17-1.53,22.64,41.86-.73,41.11C826.47,1001.68,821.38,961,850.1,962.2Zm85.66-229.38c-.54,41.45-59.63,33.1-58.88-4.49C878.51,689.58,937.5,694,935.76,732.82ZM334.78,102C493.55,3.05,736.87,35.8,825.57,218.82c3.95,5.38,2.66,7.06-4.19,7.57-29.81,2.19-31,2.32-39.18-28.24-6.81-12.27-10.18-45.9-30.35-35.36-8.44,4.32-29.56-.6-18.11,15,4.19,7,35.85,53.23,15.08,50.42C684.81,225,621,219,556.9,216.9c-72-2.64-121.42-65.06-188.22-85.88-13.32-7.19-40.41-2.7-43.63-21.26C325.22,104.62,330.25,102.78,334.78,102ZM684.66,829.52c-216.55,141.91-79.42,178-301.19-6.06,15-12.89,31.75-23.86,40-42.46,2.94-7.69,31.79-12.85,40.25-10,19.37,8.85,44.53,5.39,60.25,20.94,4.81,5.74,11.19,5.78,16.43-.15,22.73-14.5,53.7-13.06,79.26-21.31,10.44-2.47,14.2.82,18.65,6.32C653,795,667.39,813.47,684.66,829.52ZM744,574.43c-9.69,28.56-12.85,57.45-7.44,87,1.31,7.2,1.08,11.49-7.69,12.29-15.87,4.94-27.68,17.44-45.64,19.61-2.47-23.2-11.77-32.35-30.31-30.57-10,1-16.47,5.78-19.14,15.75-7.86,17.14,14.42,58.06-7.79,51.65-22.9-3.5-42.3,8-61.76,17.64-12.91,7.9-19.09-11.17-36,1.55-4.36,2.92-7.09,2.06-11.77-.5-24.72-11.23-59.24-28.59-86-17-.62-13.83.43-27.06-2.06-40.14-2-16-35.14-28.87-40.28-9.47-.36,8.5-4.27,8.87-10.74,5.47-23.73-9.86-35.37-14.34-26.55-39.65,23.48-94.85-79.26-84.13,38.78-224.39,52-61.22,186.27-32.7,260.74-32.74C757.86,389.4,775.43,491.79,744,574.43ZM810,345.88c-188.1-30.64-443.55-26.37-620.57,10.85C150.72,381.41,66.39,257.62,49,227.79,264.2,294.5,499.44,248.13,722,259.51c106.32-6,219.5,6.62,320.36-32.17C967.59,445.44,1008.72,363.8,810,345.88Z"/></svg>